# xmcd CD database file
# Copyright (C) 1997 Ti Kan
# 
# Track frame offsets:
#     150
#     15520
#     29340
#     47427
#     60445
#     73820
#     89302
#     102050
#     114917
#     131402
#     145435
#     157497
#     171840
#     183740
#     200237
#     215365
#     229220
#     242107
#     259012
#     273875
# 
# Disc length: 3857 seconds
# 
# Revision: 1
# Processed by: cddbd v1.4b41PL1 Copyright (c) Steve Scherf et al.
# Submitted via: DiscPlay 4.0.4
# 
DISCID=230f0f14
DTITLE=Various Artist - The Very Best Of Country Line Dancing
DYEAR=1900
DGENRE=
TTITLE0=Achy Breaky Heart (The Achy Breaky)
TTITLE1=Boot Scootin' Boogie (Electric Slide)
TTITLE2=All My Rowdy Friends (The Freeze)
TTITLE3=Cadillac Ranch (Slappin' Leather)
TTITLE4=Super Love (Sleezy Slide)
TTITLE5=One Step Forward (Sundance)
TTITLE6=Dumas Walker (Duchess Hustle)
TTITLE7=Love's Got A Hold On You (Texas T's)
TTITLE8=I Feel Lucky (Carolina Kicker)
TTITLE9=Honky Tonk Blues (2 Step)
TTITLE10=Hillbilly Rock (The Rock-a-Billy)
TTITLE11=Get Into Reggae Country (The Reggae)
TTITLE12=The Guld Of Mexico (The Cowboy Cha Cha)
TTITLE13=No One Lese On Earth (Carolina Kicker)
TTITLE14=It's Such A Small World (Cowboy Cha Cha)
TTITLE15=Guitars, Cadillac (The Armadillo)
TTITLE16=I'm Over You (Double JD Stroll)
TTITLE17=Bop (The Bop)
TTITLE18=You Can't Keep A Good Man Down (The Tush Push)
TTITLE19=Watch Me (Carolina Kicker)
EXTD=
EXTT0=Van Tress\n
EXTT1=Dunn\n
EXTT2=Hank Williams Jr.\n
EXTT3=Springsteen\n
EXTT4=Lemaire - Pennington\n
EXTT5=Hillman - Wildes\n
EXTT6=The Kentucky Headhunters\n
EXTT7=Stegall - Chamberlain\n
EXTT8=Mary Chapin Carpenter - Schultz\n
EXTT9=Hank Williams Jr.\n
EXTT10=Kennerley\n
EXTT11=Bellamy\n
EXTT12=Black - Nicholls\n
EXTT13=Lorber - Harris - Colocci\n
EXTT14=Crowell\n
EXTT15=Yoakam\n
EXTT16=Nicholas - Turner\n
EXTT17=Davis - Kimball\n
EXTT18=Corbin\n
EXTT19=Shapiro - Burr\n
PLAYORDER=
